REM DIRINDEX 1\2,1\3,1\4
REM DIRNAME folder01,folder02,folder03,folder04
TITLE ""
FILE "DISC2Track03.mp3" MP3
  TRACK 01 AUDIO
    TITLE "0:"
    INDEX 01 00:00:00
  TRACK 02 AUDIO
    TITLE "4:cjc105_1805"
    INDEX 01 00:00:17
  TRACK 03 AUDIO
    TITLE "0:"
    INDEX 01 00:05:22
  TRACK 04 AUDIO
    TITLE "2:cjc105_1806"
    INDEX 01 00:05:67
  TRACK 05 AUDIO
    TITLE "3:cjc105_1807"
    INDEX 01 00:07:37
  TRACK 06 AUDIO
    TITLE "0:"
    INDEX 01 00:08:73
  TRACK 07 AUDIO
    TITLE "2:cjc105_1808"
    INDEX 01 00:09:08
  TRACK 08 AUDIO
    TITLE "3:cjc105_1809"
    INDEX 01 00:10:39
  TRACK 09 AUDIO
    TITLE "0:"
    INDEX 01 00:11:72
  TRACK 10 AUDIO
    TITLE "2:cjc105_1810"
    INDEX 01 00:12:11
  TRACK 11 AUDIO
    TITLE "3:cjc105_1811"
    INDEX 01 00:13:41
  TRACK 12 AUDIO
    TITLE "0:"
    INDEX 01 00:15:05
  TRACK 13 AUDIO
    TITLE "2:cjc105_1812"
    INDEX 01 00:15:17
  TRACK 14 AUDIO
    TITLE "3:cjc105_1813"
    INDEX 01 00:16:53
  TRACK 15 AUDIO
    TITLE "0:"
    INDEX 01 00:19:46
  TRACK 16 AUDIO
    TITLE "2:cjc105_1814"
    INDEX 01 00:19:60
  TRACK 17 AUDIO
    TITLE "3:cjc105_1815"
    INDEX 01 00:21:15
  TRACK 18 AUDIO
    TITLE "0:"
    INDEX 01 00:22:48
  TRACK 19 AUDIO
    TITLE "2:cjc105_1816"
    INDEX 01 00:22:72
  TRACK 20 AUDIO
    TITLE "3:cjc105_1817"
    INDEX 01 00:24:08
  TRACK 21 AUDIO
    TITLE "0:"
    INDEX 01 00:25:13
  TRACK 22 AUDIO
    TITLE "2:cjc105_1818"
    INDEX 01 00:25:25
  TRACK 23 AUDIO
    TITLE "3:cjc105_1819"
    INDEX 01 00:27:14
  TRACK 24 AUDIO
    TITLE "0:"
    INDEX 01 00:29:07
  TRACK 25 AUDIO
    TITLE "2:cjc105_1820"
    INDEX 01 00:29:19
  TRACK 26 AUDIO
    TITLE "3:cjc105_1821"
    INDEX 01 00:31:16
  TRACK 27 AUDIO
    TITLE "0:"
    INDEX 01 00:33:09
  TRACK 28 AUDIO
    TITLE "2:cjc105_1822"
    INDEX 01 00:33:26
  TRACK 29 AUDIO
    TITLE "3:cjc105_1823"
    INDEX 01 00:34:45
  TRACK 30 AUDIO
    TITLE "0:"
    INDEX 01 00:36:01
  TRACK 31 AUDIO
    TITLE "2:cjc105_1824"
    INDEX 01 00:36:11
  TRACK 32 AUDIO
    TITLE "3:cjc105_1825"
    INDEX 01 00:37:52
  TRACK 33 AUDIO
    TITLE "0:"
    INDEX 01 00:39:43
  TRACK 34 AUDIO
    TITLE "2:cjc105_1826"
    INDEX 01 00:39:58
  TRACK 35 AUDIO
    TITLE "3:cjc105_1827"
    INDEX 01 00:40:56
  TRACK 36 AUDIO
    TITLE "0:"
    INDEX 01 00:42:00
  TRACK 37 AUDIO
    TITLE "2:cjc105_1828"
    INDEX 01 00:42:14
  TRACK 38 AUDIO
    TITLE "3:cjc105_1829"
    INDEX 01 00:43:09
  TRACK 39 AUDIO
    TITLE "0:"
    INDEX 01 00:44:28
  TRACK 40 AUDIO
    TITLE "2:cjc105_1830"
    INDEX 01 00:44:42
  TRACK 41 AUDIO
    TITLE "3:cjc105_1831"
    INDEX 01 00:45:45
  TRACK 42 AUDIO
    TITLE "0:"
    INDEX 01 00:46:64
  TRACK 43 AUDIO
    TITLE "2:cjc105_1832"
    INDEX 01 00:46:74
  TRACK 44 AUDIO
    TITLE "3:cjc105_1833"
    INDEX 01 00:48:36
  TRACK 45 AUDIO
    TITLE "0:"
    INDEX 01 00:51:01
  TRACK 46 AUDIO
    TITLE "2:cjc105_1834"
    INDEX 01 00:51:16
  TRACK 47 AUDIO
    TITLE "3:cjc105_1835"
    INDEX 01 00:52:57
  TRACK 48 AUDIO
    TITLE "0:"
    INDEX 01 00:53:74
  TRACK 49 AUDIO
    TITLE "2:cjc105_1836"
    INDEX 01 00:54:09
  TRACK 50 AUDIO
    TITLE "3:cjc105_1837"
    INDEX 01 00:55:38
  TRACK 51 AUDIO
    TITLE "0:"
    INDEX 01 00:56:69
  TRACK 52 AUDIO
    TITLE "2:cjc105_1838"
    INDEX 01 00:57:05
  TRACK 53 AUDIO
    TITLE "3:cjc105_1839"
    INDEX 01 00:58:44
  TRACK 54 AUDIO
    TITLE "0:"
    INDEX 01 01:00:06
  TRACK 55 AUDIO
    TITLE "2:cjc105_1840"
    INDEX 01 01:00:21
  TRACK 56 AUDIO
    TITLE "3:cjc105_1841"
    INDEX 01 01:01:36
  TRACK 57 AUDIO
    TITLE "0:"
    INDEX 01 01:02:61
  TRACK 58 AUDIO
    TITLE "2:cjc105_1842"
    INDEX 01 01:02:69
  TRACK 59 AUDIO
    TITLE "3:cjc105_1843"
    INDEX 01 01:04:09
  TRACK 60 AUDIO
    TITLE "0:"
    INDEX 01 01:05:22
  TRACK 61 AUDIO
    TITLE "2:cjc105_1844"
    INDEX 01 01:05:34
  TRACK 62 AUDIO
    TITLE "3:cjc105_1845"
    INDEX 01 01:06:51
  TRACK 63 AUDIO
    TITLE "0:"
    INDEX 01 01:08:09
  TRACK 64 AUDIO
    TITLE "2:cjc105_1846"
    INDEX 01 01:08:21
  TRACK 65 AUDIO
    TITLE "3:cjc105_1847"
    INDEX 01 01:10:30
  TRACK 66 AUDIO
    TITLE "0:"
    INDEX 01 01:11:58
  TRACK 67 AUDIO
    TITLE "2:cjc105_1848"
    INDEX 01 01:11:68
  TRACK 68 AUDIO
    TITLE "3:cjc105_1849"
    INDEX 01 01:13:02
  TRACK 69 AUDIO
    TITLE "0:"
    INDEX 01 01:14:17
  TRACK 70 AUDIO
    TITLE "2:cjc105_1850"
    INDEX 01 01:14:29
  TRACK 71 AUDIO
    TITLE "3:cjc105_1851"
    INDEX 01 01:15:31
  TRACK 72 AUDIO
    TITLE "0:"
    INDEX 01 01:16:40
  TRACK 73 AUDIO
    TITLE "2:cjc105_1852"
    INDEX 01 01:16:52
  TRACK 74 AUDIO
    TITLE "3:cjc105_1853"
    INDEX 01 01:18:07
  TRACK 75 AUDIO
    TITLE "0:"
    INDEX 01 01:19:27
  TRACK 76 AUDIO
    TITLE "2:cjc105_1854"
    INDEX 01 01:19:40
  TRACK 77 AUDIO
    TITLE "3:cjc105_1855"
    INDEX 01 01:20:67
  TRACK 78 AUDIO
    TITLE "0:"
    INDEX 01 01:22:11
  TRACK 79 AUDIO
    TITLE "2:cjc105_1856"
    INDEX 01 01:22:23
  TRACK 80 AUDIO
    TITLE "3:cjc105_1857"
    INDEX 01 01:24:26
  TRACK 81 AUDIO
    TITLE "0:"
    INDEX 01 01:25:60
  TRACK 82 AUDIO
    TITLE "2:cjc105_1858"
    INDEX 01 01:25:74
  TRACK 83 AUDIO
    TITLE "3:cjc105_1859"
    INDEX 01 01:27:59
  TRACK 84 AUDIO
    TITLE "0:"
    INDEX 01 01:29:31
  TRACK 85 AUDIO
    TITLE "2:cjc105_1860"
    INDEX 01 01:29:46
  TRACK 86 AUDIO
    TITLE "3:cjc105_1861"
    INDEX 01 01:31:32
  TRACK 87 AUDIO
    TITLE "0:"
    INDEX 01 01:33:09
  TRACK 88 AUDIO
    TITLE "2:cjc105_1862"
    INDEX 01 01:33:19
  TRACK 89 AUDIO
    TITLE "3:cjc105_1863"
    INDEX 01 01:35:04
  TRACK 90 AUDIO
    TITLE "0:"
    INDEX 01 01:36:60
  TRACK 91 AUDIO
    TITLE "2:cjc105_1864"
    INDEX 01 01:36:70
  TRACK 92 AUDIO
    TITLE "3:cjc105_1865"
    INDEX 01 01:38:40
  TRACK 93 AUDIO
    TITLE "0:"
    INDEX 01 01:40:15
  TRACK 94 AUDIO
    TITLE "2:cjc105_1866"
    INDEX 01 01:40:36
  TRACK 95 AUDIO
    TITLE "3:cjc105_1867"
    INDEX 01 01:42:06
  TRACK 96 AUDIO
    TITLE "0:"
    INDEX 01 01:43:29
  TRACK 97 AUDIO
    TITLE "2:cjc105_1868"
    INDEX 01 01:43:41
  TRACK 98 AUDIO
    TITLE "3:cjc105_1869"
    INDEX 01 01:44:62
  TRACK 99 AUDIO
    TITLE "0:"
    INDEX 01 01:46:08
  TRACK 100 AUDIO
    TITLE "2:cjc105_1870"
    INDEX 01 01:46:21
  TRACK 101 AUDIO
    TITLE "3:cjc105_1871"
    INDEX 01 01:48:03
  TRACK 102 AUDIO
    TITLE "0:"
    INDEX 01 01:49:16
  TRACK 103 AUDIO
    TITLE "2:cjc105_1872"
    INDEX 01 01:49:32
  TRACK 104 AUDIO
    TITLE "3:cjc105_1873"
    INDEX 01 01:51:66
  TRACK 105 AUDIO
    TITLE "0:"
    INDEX 01 01:53:27
  TRACK 106 AUDIO
    TITLE "2:cjc105_1874"
    INDEX 01 01:53:43
  TRACK 107 AUDIO
    TITLE "3:cjc105_1875"
    INDEX 01 01:55:26
  TRACK 108 AUDIO
    TITLE "0:"
    INDEX 01 01:56:65
  TRACK 109 AUDIO
    TITLE "2:cjc105_1876"
    INDEX 01 01:57:04
  TRACK 110 AUDIO
    TITLE "3:cjc105_1877"
    INDEX 01 01:59:36
  TRACK 111 AUDIO
    TITLE "0:"
    INDEX 01 02:01:39
  TRACK 112 AUDIO
    TITLE "2:cjc105_1878"
    INDEX 01 02:01:46
  TRACK 113 AUDIO
    TITLE "3:cjc105_1879"
    INDEX 01 02:02:69
  TRACK 114 AUDIO
    TITLE "0:"
    INDEX 01 02:04:39
  TRACK 115 AUDIO
    TITLE "2:cjc105_1880"
    INDEX 01 02:04:51
  TRACK 116 AUDIO
    TITLE "3:cjc105_1881"
    INDEX 01 02:06:32
  TRACK 117 AUDIO
    TITLE "0:"
    INDEX 01 02:07:41
  TRACK 118 AUDIO
    TITLE "2:cjc105_1882"
    INDEX 01 02:07:55
  TRACK 119 AUDIO
    TITLE "3:cjc105_1883"
    INDEX 01 02:09:21
  TRACK 120 AUDIO
    TITLE "0:"
    INDEX 01 02:10:55
  TRACK 121 AUDIO
    TITLE "2:cjc105_1884"
    INDEX 01 02:10:65
  TRACK 122 AUDIO
    TITLE "3:cjc105_1885"
    INDEX 01 02:12:27
  TRACK 123 AUDIO
    TITLE "0:"
    INDEX 01 02:13:71
